Coordinates
version=1
nRows=19
nColumns=24
inDegrees=yes

Units are S.I. units (second, meters, Newtons, ...)
Angles are in degrees.

endheader
time	pelvis_tilt	pelvis_list	pelvis_rotation	pelvis_tx	pelvis_ty	pelvis_tz	hip_flexion_r	hip_adduction_r	hip_rotation_r	knee_angle_r	ankle_angle_r	subtalar_angle_r	mtp_angle_r	hip_flexion_l	hip_adduction_l	hip_rotation_l	knee_angle_l	ankle_angle_l	subtalar_angle_l	mtp_angle_l	lumbar_extension	lumbar_bending	lumbar_rotation
      1.06216667	     -0.89612686	      0.13939126	     -5.79917909	      0.00718830	      1.03285784	      0.34185219	    -15.70503453	      1.09987602	     -0.30833873	    -10.07995868	     21.22511479	      5.33778682	      7.18902453	     27.72422967	     -2.59063622	     -6.28821501	     -2.96912013	     11.44574219	      6.58899574	      3.84479649	    -16.34233310	      3.47017725	      4.38075708
      1.06633333	     -0.93851838	      0.10659076	     -5.88077777	      0.01334436	      1.03177103	      0.34162198	    -15.89272091	      1.04021497	     -0.32779612	    -10.35760778	     21.16381431	      5.48410853	      7.26219622	     27.79148173	     -2.54601905	     -6.23584838	     -3.40417884	     11.43633282	      6.54302181	      3.85248464	    -16.25846461	      3.43210872	      4.38499735
      1.07050000	     -1.00078558	      0.09172543	     -5.94761681	      0.01953977	      1.03065526	      0.34135518	    -16.03356262	      0.95770974	     -0.45526354	    -10.69302967	     21.17999398	      5.84900499	      7.44385680	     27.88791287	     -2.48140327	     -6.17038462	     -3.89006695	     11.36437914	      6.58287267	      3.88179762	    -16.14931980	      3.36279277	      4.39320161
      1.07466667	     -1.02455302	      0.08521063	     -6.01967685	      0.02576356	      1.02966436	      0.34112060	    -16.24387285	      0.87151222	     -0.43672286	    -10.96401323	     21.08348014	      5.92296514	      7.48303115	     27.92973242	     -2.40746166	     -6.08664579	     -4.38805817	     11.23144441	      6.55045457	      3.88851344	    -16.09453025	      3.29112040	      4.39095066
      1.07883333	     -1.09784581	      0.08370764	     -6.08622853	      0.03202631	      1.02859085	      0.34082466	    -16.33913440	      0.76546000	     -0.64271799	    -11.37155144	     21.10045196	      6.38482137	      7.79147670	     28.03978665	     -2.33258325	     -6.00501749	     -4.94820349	     11.09774987	      6.58546070	      3.96615381	    -15.93692203	      3.21562418	      4.38151853
      1.08300000	     -1.13284362	      0.08393621	     -6.14108600	      0.03830277	      1.02764485	      0.34054354	    -16.50202430	      0.66607712	     -0.73350018	    -11.71150429	     20.89575692	      6.55494511	     10.82504801	     28.09529496	     -2.24938881	     -5.86429372	     -5.50200444	     10.86875108	      6.58627621	      4.83284648	    -15.85859809	      3.12640713	      4.37609760
      1.08716667	     -1.18691860	      0.10090712	     -6.19042589	      0.04461835	      1.02669711	      0.34026062	    -16.63399951	      0.55242115	     -0.82594837	    -12.07936180	     20.73185303	      6.76061684	     10.86092150	     28.17839083	     -2.15194673	     -5.71130258	     -6.09472801	     10.63623387	      6.58419074	      4.84326749	    -15.73659211	      3.00687852	      4.35965307
      1.09133333	     -1.24216081	      0.12414342	     -6.23905772	      0.05094685	      1.02579122	      0.33996350	    -16.74213947	      0.42703177	     -0.95579316	    -12.49406194	     20.58933261	      7.03720470	     10.94460589	     28.26915271	     -2.05146234	     -5.55694173	     -6.71958423	     10.34666676	      6.56599552	      4.86966636	    -15.61620503	      2.89009971	      4.33453797
      1.09550000	     -1.29611959	      0.15501376	     -6.28292290	      0.05728251	      1.02493061	      0.33964811	    -16.83143017	      0.29021561	     -1.11541089	    -12.94587140	     20.44166615	      7.33412633	     11.10658551	     28.36903203	     -1.94492572	     -5.40056698	     -7.38034487	     10.02089579	      6.51001494	      4.92145647	    -15.49384279	      2.76866845	      4.29922147
      1.09966667	     -1.36157816	      0.19468995	     -6.31901343	      0.06365475	      1.02411841	      0.33933471	    -16.90641081	      0.14989591	     -1.24212044	    -13.39745729	     20.18713452	      7.57026791	     11.26616281	     28.47847353	     -1.83217645	     -5.22060094	     -8.04470355	      9.64144649	      6.47849450	      4.96928232	    -15.36070534	      2.61707483	      4.26999098
      1.10383333	     -1.40004081	      0.24530840	     -6.34489631	      0.07001090	      1.02338533	      0.33897692	    -16.98276497	     -0.00980697	     -1.42098049	    -13.89737693	     19.91649385	      7.77998408	     13.98914911	     28.56304293	     -1.69909428	     -4.98348666	     -8.71971830	      9.18275844	      6.24761669	      5.79407256	    -15.25713320	      2.46668712	      4.22425138
      1.10800000	     -1.46350675	      0.28929947	     -6.37526123	      0.07638104	      1.02267168	      0.33863435	    -17.01423506	     -0.16137315	     -1.57645587	    -14.43401222	     19.63375073	      8.05067715	     14.06252856	     28.71892685	     -1.59737408	     -4.88860515	     -9.50854760	      8.81695157	      6.26621781	      5.80216069	    -15.12517284	      2.32263523	      4.17554280
      1.11216667	     -1.51841493	      0.34986416	     -6.39351429	      0.08277653	      1.02203999	      0.33828020	    -17.04448508	     -0.32786885	     -1.72607700	    -14.98512327	     19.27437635	      8.28060864	     14.15398864	     28.85814389	     -1.47496571	     -4.74271888	    -10.28303823	      8.39421036	      6.21836866	      5.80947106	    -15.00463441	      2.14019741	      4.13216522
      1.11633333	     -1.59177595	      0.41021439	     -6.40871685	      0.08915036	      1.02141610	      0.33787480	    -17.00937899	     -0.50339633	     -1.93768876	    -15.62767756	     18.98843539	      8.59829718	     14.35418666	     29.04456768	     -1.35727517	     -4.60505532	    -11.12415976	      7.98660094	      6.06997037	      5.82721854	    -14.85451424	      1.98518502	      4.06925629
      1.12050000	     -1.61781114	      0.49410643	     -6.42588749	      0.09553330	      1.02095312	      0.33748466	    -17.01173250	     -0.70989864	     -2.12130566	    -16.27675546	     18.53568663	      8.79973506	     17.30559412	     29.15614262	     -1.21060445	     -4.41019161	    -11.91527242	      7.51152285	      5.80168032	      6.09501063	    -14.77243919	      1.77794828	      3.99739490
      1.12466667	     -1.68219835	      0.55544116	     -6.42836847	      0.10192314	      1.02046627	      0.33706267	    -16.94805103	     -0.88761315	     -2.31557002	    -16.98356347	     18.12202530	      9.07087694	     17.38289251	     29.36657640	     -1.10569818	     -4.34058472	    -12.84520587	      7.18072564	      5.77966321	      6.09113396	    -14.64316240	      1.60813781	      3.94826875
      1.12883333	     -1.73083233	      0.63361263	     -6.43303016	      0.10830645	      1.02006993	      0.33662839	    -16.86643123	     -1.09193315	     -2.52032201	    -17.74932143	     17.68408433	      9.36155918	     17.54688902	     29.55203425	     -0.98393359	     -4.25070823	    -13.76230106	      6.83233481	      5.66494988	      6.08143741	    -14.53677954	      1.41447174	      3.88681857
      1.13300000	     -1.77600476	      0.71550740	     -6.43304086	      0.11469671	      1.01973956	      0.33617786	    -16.76183253	     -1.30417468	     -2.72672413	    -18.56158089	     17.20639411	      9.64718899	     17.78402513	     29.73819132	     -0.85989631	     -4.16147726	    -14.69645278	      6.50733817	      5.52783819	      6.06479917	    -14.42876060	      1.21439612	      3.82509627
      1.13716667	     -1.79496813	      0.81559938	     -6.43310870	      0.12109650	      1.01952608	      0.33571364	    -16.66171751	     -1.54386433	     -2.92885833	    -19.39937006	     16.59652715	      9.85072418	     21.03007099	     29.87874246	     -0.71082345	     -4.03330145	    -15.60149373	      6.20903799	      5.29727875	      5.83482760	    -14.35546499	      0.98116748	      3.75112746
